<svg width="29" height="29" viewBox="0 0 29 29" fill="none" xmlns="http://www.w3.org/2000/svg">
<path d="M22.25 3.5C23.112 3.5 23.9386 3.84241 24.5481 4.4519C25.1576 5.0614 25.5 5.88805 25.5 6.75V22.25C25.5 23.112 25.1576 23.9386 24.5481 24.5481C23.9386 25.1576 23.112 25.5 22.25 25.5H6.75C5.88805 25.5 5.0614 25.1576 4.4519 24.5481C3.84241 23.9386 3.5 23.112 3.5 22.25V6.75C3.5 5.88805 3.84241 5.0614 4.4519 4.4519C5.0614 3.84241 5.88805 3.5 6.75 3.5H22.25ZM24 10.003H5V22.25C5 23.216 5.784 24 6.75 24H22.25C22.7141 24 23.1592 23.8156 23.4874 23.4874C23.8156 23.1592 24 22.7141 24 22.25V10.003ZM9.249 18.001C9.58052 18.001 9.89846 18.1327 10.1329 18.3671C10.3673 18.6015 10.499 18.9195 10.499 19.251C10.499 19.5825 10.3673 19.9005 10.1329 20.1349C9.89846 20.3693 9.58052 20.501 9.249 20.501C8.91748 20.501 8.59954 20.3693 8.36512 20.1349C8.1307 19.9005 7.999 19.5825 7.999 19.251C7.999 18.9195 8.1307 18.6015 8.36512 18.3671C8.59954 18.1327 8.91748 18.001 9.249 18.001ZM14.503 18.001C14.8345 18.001 15.1525 18.1327 15.3869 18.3671C15.6213 18.6015 15.753 18.9195 15.753 19.251C15.753 19.5825 15.6213 19.9005 15.3869 20.1349C15.1525 20.3693 14.8345 20.501 14.503 20.501C14.1715 20.501 13.8535 20.3693 13.6191 20.1349C13.3847 19.9005 13.253 19.5825 13.253 19.251C13.253 18.9195 13.3847 18.6015 13.6191 18.3671C13.8535 18.1327 14.1715 18.001 14.503 18.001ZM9.249 13.001C9.58052 13.001 9.89846 13.1327 10.1329 13.3671C10.3673 13.6015 10.499 13.9195 10.499 14.251C10.499 14.5825 10.3673 14.9005 10.1329 15.1349C9.89846 15.3693 9.58052 15.501 9.249 15.501C8.91748 15.501 8.59954 15.3693 8.36512 15.1349C8.1307 14.9005 7.999 14.5825 7.999 14.251C7.999 13.9195 8.1307 13.6015 8.36512 13.3671C8.59954 13.1327 8.91748 13.001 9.249 13.001ZM14.503 13.001C14.8345 13.001 15.1525 13.1327 15.3869 13.3671C15.6213 13.6015 15.753 13.9195 15.753 14.251C15.753 14.5825 15.6213 14.9005 15.3869 15.1349C15.1525 15.3693 14.8345 15.501 14.503 15.501C14.1715 15.501 13.8535 15.3693 13.6191 15.1349C13.3847 14.9005 13.253 14.5825 13.253 14.251C13.253 13.9195 13.3847 13.6015 13.6191 13.3671C13.8535 13.1327 14.1715 13.001 14.503 13.001ZM19.758 13.001C20.0895 13.001 20.4075 13.1327 20.6419 13.3671C20.8763 13.6015 21.008 13.9195 21.008 14.251C21.008 14.5825 20.8763 14.9005 20.6419 15.1349C20.4075 15.3693 20.0895 15.501 19.758 15.501C19.4265 15.501 19.1085 15.3693 18.8741 15.1349C18.6397 14.9005 18.508 14.5825 18.508 14.251C18.508 13.9195 18.6397 13.6015 18.8741 13.3671C19.1085 13.1327 19.4265 13.001 19.758 13.001ZM22.25 5H6.75C6.28587 5 5.84075 5.18437 5.51256 5.51256C5.18437 5.84075 5 6.28587 5 6.75V8.503H24V6.75C24 6.28587 23.8156 5.84075 23.4874 5.51256C23.1592 5.18437 22.7141 5 22.25 5Z" fill="black"/>
</svg>
