<svg width="28" height="28" viewBox="0 0 28 28" fill="none" xmlns="http://www.w3.org/2000/svg">
<path d="M8.75 14C8.75 14.4641 8.56563 14.9092 8.23744 15.2374C7.90925 15.5656 7.46413 15.75 7 15.75C6.53587 15.75 6.09075 15.5656 5.76256 15.2374C5.43437 14.9092 5.25 14.4641 5.25 14C5.25 13.5359 5.43437 13.0908 5.76256 12.7626C6.09075 12.4344 6.53587 12.25 7 12.25C7.46413 12.25 7.90925 12.4344 8.23744 12.7626C8.56563 13.0908 8.75 13.5359 8.75 14V14ZM15.75 14C15.75 14.4641 15.5656 14.9092 15.2374 15.2374C14.9092 15.5656 14.4641 15.75 14 15.75C13.5359 15.75 13.0908 15.5656 12.7626 15.2374C12.4344 14.9092 12.25 14.4641 12.25 14C12.25 13.5359 12.4344 13.0908 12.7626 12.7626C13.0908 12.4344 13.5359 12.25 14 12.25C14.4641 12.25 14.9092 12.4344 15.2374 12.7626C15.5656 13.0908 15.75 13.5359 15.75 14ZM21 15.75C21.4641 15.75 21.9092 15.5656 22.2374 15.2374C22.5656 14.9092 22.75 14.4641 22.75 14C22.75 13.5359 22.5656 13.0908 22.2374 12.7626C21.9092 12.4344 21.4641 12.25 21 12.25C20.5359 12.25 20.0908 12.4344 19.7626 12.7626C19.4344 13.0908 19.25 13.5359 19.25 14C19.25 14.4641 19.4344 14.9092 19.7626 15.2374C20.0908 15.5656 20.5359 15.75 21 15.75V15.75Z" fill="black"/>
<path d="M3.78875 27.6553L3.82375 27.6482C7.02625 27.013 8.98275 26.1748 9.89275 25.7145C11.2325 26.0718 12.6134 26.2519 14 26.25C21.7315 26.25 28 20.7655 28 14C28 7.2345 21.7315 1.75 14 1.75C6.2685 1.75 0 7.2345 0 14C0 17.08 1.30025 19.8975 3.4475 22.05C3.29728 23.4327 2.98961 24.7937 2.5305 26.1065L2.52525 26.1257C2.39478 26.5018 2.25237 26.8735 2.09825 27.2405C1.96 27.566 2.22775 27.93 2.576 27.874C2.98141 27.8077 3.38571 27.7347 3.78875 27.6553V27.6553ZM5.18875 22.2162C5.21326 21.96 5.18096 21.7016 5.09415 21.4593C5.00733 21.217 4.86814 20.9968 4.6865 20.8145C2.8315 18.9525 1.75 16.569 1.75 14C1.75 8.414 7.007 3.5 14 3.5C20.993 3.5 26.25 8.414 26.25 14C26.25 19.5878 20.993 24.5 14 24.5C12.7664 24.5018 11.5379 24.3418 10.346 24.024C9.92946 23.9124 9.48638 23.9585 9.10175 24.1535C8.4245 24.4965 6.93175 25.151 4.49225 25.7162C4.83258 24.5737 5.06576 23.402 5.18875 22.2162V22.2162Z" fill="black"/>
</svg>
