<svg width="29" height="29" viewBox="0 0 29 29" fill="none" xmlns="http://www.w3.org/2000/svg">
<path d="M13.092 3.996C13.4913 3.67562 13.988 3.50101 14.5 3.50101C15.012 3.50101 15.5087 3.67562 15.908 3.996L23.658 10.214C23.9209 10.4249 24.1331 10.6922 24.2788 10.9962C24.4246 11.3001 24.5001 11.6329 24.5 11.97V23.25C24.5 23.8467 24.2629 24.419 23.841 24.841C23.419 25.263 22.8467 25.5 22.25 25.5H19.25C18.6533 25.5 18.081 25.263 17.659 24.841C17.2371 24.419 17 23.8467 17 23.25V17.25C17 17.0511 16.921 16.8603 16.7803 16.7197C16.6397 16.579 16.4489 16.5 16.25 16.5H12.75C12.5511 16.5 12.3603 16.579 12.2197 16.7197C12.079 16.8603 12 17.0511 12 17.25V23.25C12 23.8467 11.7629 24.419 11.341 24.841C10.919 25.263 10.3467 25.5 9.75 25.5H6.75C6.15326 25.5 5.58097 25.263 5.15901 24.841C4.73705 24.419 4.5 23.8467 4.5 23.25V11.97C4.5 11.288 4.81 10.642 5.342 10.215L13.092 3.997V3.996ZM14.969 5.166C14.8359 5.05938 14.6705 5.00127 14.5 5.00127C14.3295 5.00127 14.1641 5.05938 14.031 5.166L6.281 11.384C6.19334 11.4542 6.12258 11.5433 6.07395 11.6445C6.02531 11.7458 6.00004 11.8567 6 11.969V23.249C6 23.664 6.336 23.999 6.75 23.999H9.75C9.94891 23.999 10.1397 23.92 10.2803 23.7793C10.421 23.6387 10.5 23.4479 10.5 23.249V17.249C10.5 16.6523 10.7371 16.08 11.159 15.658C11.581 15.2361 12.1533 14.999 12.75 14.999H16.25C16.5456 14.999 16.8382 15.0572 17.1113 15.1704C17.3843 15.2835 17.6324 15.4493 17.8413 15.6584C18.0503 15.8674 18.216 16.1156 18.329 16.3887C18.442 16.6618 18.5001 16.9544 18.5 17.25V23.25C18.5 23.665 18.836 24 19.25 24H22.25C22.4489 24 22.6397 23.921 22.7803 23.7803C22.921 23.6397 23 23.4489 23 23.25V11.97C23.0001 11.8578 22.975 11.7469 22.9265 11.6457C22.878 11.5444 22.8075 11.4553 22.72 11.385L14.97 5.167L14.969 5.166Z" fill="black"/>
</svg>
